<?xml version="1.0" standalone="no"?>
<!DOCTYPE svg PUBLIC "-//W3C//DTD SVG 1.1//EN" "http://www.w3.org/Graphics/SVG/1.1/DTD/svg11.dtd" >
<svg xmlns="http://www.w3.org/2000/svg" xmlns:xlink="http://www.w3.org/1999/xlink" version="1.1">
<metadata></metadata>
<defs>
<font id="melma_blackregular" horiz-adv-x="1024" >
<font-face units-per-em="2048" ascent="1536" descent="-512" />
<missing-glyph horiz-adv-x="512" />
<glyph horiz-adv-x="0" />
<glyph unicode="&#xd;" />
<glyph horiz-adv-x="0" />
<glyph horiz-adv-x="0" />
<glyph unicode=" "  horiz-adv-x="512" />
<glyph unicode="&#x09;" horiz-adv-x="512" />
<glyph unicode="&#xa0;" horiz-adv-x="512" />
<glyph unicode="&#x22;" horiz-adv-x="397" d="M49 1362v119l76 71h45v-190h-121zM211 1362v119l76 71h45v-190h-121z" />
<glyph unicode="#" horiz-adv-x="1376" d="M0 432v275h1300v-275h-1300zM0 864v273h1300v-273h-1300zM135 2l273 1565h274l-274 -1565h-273zM621 2l272 1565h274l-274 -1565h-272z" />
<glyph unicode="$" horiz-adv-x="825" d="M0 340v221h244v-141q0 -20 9 -36.5t23 -27.5v342q-35 8 -68.5 16.5t-64.5 24.5q-68 33 -105.5 88.5t-37.5 126.5v295q0 98 65.5 166t159.5 76h17h2h32v98h175v-98h34h2q49 0 93.5 -19.5t77 -52.5t51 -77t18.5 -93v-219h-242v139q0 39 -34 64v-328q35 -8 68.5 -17 t64.5 -26q70 -35 106.5 -93t36.5 -132v-297q0 -96 -64.5 -165t-158.5 -77h-17h-2h-34v-94h-175v94h-32h-2q-49 0 -93.5 19.5t-77 52.5t-52 77t-19.5 93zM244 954q0 -12 32 -20v287q-33 -29 -32 -74v-193zM451 369q35 31 34 73v195q0 4 -1 5t-1 3q-6 10 -32 17v-293z" />
<glyph unicode="%" horiz-adv-x="1705" d="M0 932q0 -53 36 -91t89 -42h10h180h2q55 0 94.5 39t39.5 94v506q0 55 -39.5 95t-94.5 40h-2h-190q-53 -4 -89 -43t-36 -92v-506zM135 1145v235q0 25 17.5 41.5t40.5 16.5h65h6zM174 936l141 319v-278q0 -16 -12 -29.5t-31 -13.5h-79q-4 0 -9.5 1t-9.5 1zM225 4l527 1573 h194l-524 -1573h-197zM721 125q0 -53 36 -91t89 -42h8h2h180h2q55 0 94 39t39 94v506q0 55 -39 95t-94 40h-2h-190v-2q-53 -4 -89 -42t-36 -91v-506zM856 338v235q0 25 17.5 41.5t39.5 16.5h66h6zM895 129l141 320v-279q0 -16 -12 -29.5t-31 -13.5h-80q-4 0 -9 1t-9 1z" />
<glyph unicode="&#x26;" horiz-adv-x="1658" d="M23 147v91q193 0 386 33.5t386.5 75.5t387 76t386.5 34v-92q-193 0 -386.5 -34t-387 -75t-387 -75t-385.5 -34zM23 608q2 6 10 13q12 10 37 12q8 0 12 -2q18 115 37.5 227.5t40.5 226.5q10 0 18 1t19 1q14 2 27.5 3.5t29.5 3.5q10 0 20.5 1t20.5 3q16 2 29.5 4t29.5 4 q10 2 17.5 3t17.5 1q35 -188 67.5 -375.5t67.5 -376.5q-35 -6 -67.5 -12t-67.5 -10q-8 41 -15 80t-14 80q-43 -6 -86 -11.5t-86 -9.5q-6 -41 -13 -83t-15 -83q-35 -2 -68 -3t-67 -1q12 66 23 129.5t22 128.5q-6 16 -16.5 28.5t-30.5 16.5zM23 1147v92q193 0 386 34t386.5 75 t387 74.5t386.5 33.5v-90q-193 0 -386.5 -34t-387 -76t-387 -75.5t-385.5 -33.5zM213 612q31 4 61.5 7.5t61.5 7.5q-14 84 -28.5 167t-31.5 167h-4q-16 -88 -30.5 -174.5t-28.5 -174.5zM524 662q4 4 11 12q4 4 12 10t22 10v447q16 4 30.5 6t29.5 4q18 4 37.5 8t38.5 8 q16 4 29.5 6.5t29.5 6.5q33 -113 63.5 -224.5t61.5 -224.5v475q35 8 67.5 14.5t67.5 12.5v-772q-14 -4 -28.5 -6t-28.5 -4q-20 -4 -39 -8.5t-39 -8.5q-14 -4 -27.5 -6t-30.5 -6q-33 117 -63.5 230.5t-62.5 230.5v-488q-35 -8 -68 -14t-68 -14v258q-6 16 -16 26.5t-29 10.5z M1073 768q2 6 10 14q8 12 35 19v315v135q80 14 159 24.5t157 14.5q2 0 2 2q55 4 94 -34.5t39 -94.5v-506q0 -55 -39 -95t-94 -44h-2q-86 -6 -181 -18q-35 -4 -67.5 -9.5t-67.5 -11.5v135v115q-10 39 -45 39zM1253 635q33 4 64 7t61 7q23 2 39.5 19.5t16.5 42.5v389 q0 23 -16.5 39t-39.5 12q-31 -4 -61.5 -7t-63.5 -7v-502z" />
<glyph unicode="(" horiz-adv-x="794" d="M57 1038q35 2 68.5 -17t60.5 -54q27 -37 40.5 -80t17.5 -88q-35 -6 -71 6t-64 47q-29 35 -42.5 85t-9.5 101zM63 797q35 8 71 -6.5t69 -45.5q31 -31 51 -70.5t31 -82.5q-33 -12 -71 -6t-73 37t-54 76.5t-24 97.5zM82 1177.5q-6 51.5 8 100.5q74 -10 115 -92 q23 -41 30 -85t3 -89q-35 -2 -70 15t-57 58q-23 41 -29 92.5zM106 561q35 12 72 4t74 -33q35 -27 62.5 -63.5t43.5 -77.5q-31 -16 -68.5 -16t-78.5 24q-39 25 -66.5 68t-38.5 94zM136.5 1414q2.5 52 25.5 99q69 -22 98 -110t2 -178q-35 4 -65.5 26.5t-46.5 65.5 q-16 45 -13.5 97zM186 334q64 35 148 -6q41 -20 72.5 -52t56.5 -71q-29 -23 -67 -28t-81 13q-41 18 -75.5 57.5t-53.5 86.5zM243 966.5q3 200.5 64 393.5q0 6 6 6q8 -4 4 -10q-61 -190 -61 -389t55.5 -387.5t166 -356.5t274.5 -299q10 -12 4 -18q-8 -10 -19 0 q-164 135 -275.5 306t-166.5 362.5t-52 392zM264 1010q0 45 16.5 85.5t49.5 69.5t68.5 35t70.5 -4q-12 -82 -72 -135q-61 -57 -133 -51zM272 803q-8 43 2 86t37 76q29 33 64 44t69 7q0 -82 -49 -144q-51 -66 -123 -69zM289 1219q8 45 31.5 82.5t58.5 60.5q37 23 73.5 25 t69.5 -15q-12 -37 -34.5 -69.5t-57.5 -55.5q-70 -47 -141 -28zM300 684q3 45 26 80q23 37 55.5 54.5t67.5 17.5q12 -76 -25 -150q-20 -35 -49 -57.5t-64 -30.5q-14 41 -11 86zM303 119q29 23 66 26.5t80 -8.5q43 -14 80.5 -41.5t68.5 -62.5q-25 -27 -60.5 -38t-82.5 1 t-86 45t-66 78zM305 1466q2 47 25 95q23 47 58.5 78.5t76.5 41.5q10 -84 -31 -172q-43 -86 -115 -127q-16 37 -14 84zM357.5 486q-2.5 44 13.5 83q16 41 45.5 62.5t64.5 27.5q10 -35 11.5 -73.5t-13.5 -77.5q-29 -78 -96 -105q-23 39 -25.5 83zM446 298q-10 44 0 85t35 67.5 t60 38.5q16 -35 23 -72.5t-1 -78.5q-12 -84 -78 -119q-29 35 -39 79zM551 209q4 43 24.5 73.5t51.5 47.5q49 -66 49 -148q-2 -41 -15.5 -74.5t-42.5 -56.5q-35 33 -53 75t-14 83z" />
<glyph unicode=")" horiz-adv-x="739" d="M-8 -94q6 -10 20 0q164 135 275.5 306t167 362.5t52.5 392t-65 393.5q-4 6 -8 6q-4 -2 -4 -10q61 -190 61.5 -389t-55 -387.5t-167 -356.5t-273.5 -299q-12 -12 -4 -18zM74 182q0 -41 14 -74.5t43 -56.5q33 33 51.5 75t14.5 83q-4 43 -24.5 73.5t-51.5 47.5 q-23 -31 -36 -69t-11 -79zM152 33q29 35 66.5 62.5t80.5 41.5q90 27 147 -18q-27 -45 -66.5 -78t-86.5 -45t-83 -1t-58 38zM183.5 416.5q-7.5 -37.5 0.5 -78.5q16 -84 78 -119q29 35 39 79t0 85t-34.5 67.5t-59.5 38.5q-16 -35 -23.5 -72.5zM227 1372q10 -37 33 -69.5 t57 -55.5q70 -47 142 -28q-6 45 -29.5 82.5t-60.5 60.5t-74 25t-68 -15zM255 585.5q-1 -38.5 13 -77.5q29 -78 97 -105q23 39 25.5 83t-13.5 83q-16 41 -46 62.5t-65 27.5q-10 -35 -11 -73.5zM281 1196q10 -78 69 -135q61 -57 133 -51q2 45 -15 85.5t-50 69.5t-69 35t-68 -4 zM283 1681q41 -10 76.5 -41.5t58.5 -78.5t24.5 -94.5t-14.5 -84.5q-72 43 -115 127q-41 88 -30 172zM287 205q23 39 54.5 71t72.5 52q84 41 147 6q-18 -47 -52 -86t-77 -58q-43 -18 -81 -13t-64 28zM299 836q-12 -76 25 -150q43 -72 112 -88q14 41 11.5 86t-25.5 80 q-23 37 -55.5 54.5t-67.5 17.5zM303 1016q0 -80 49 -144q51 -66 125 -69q6 43 -3 86t-38 76t-63.5 44t-69.5 7zM391 391q16 41 43 77.5t64 63.5q35 25 71.5 33t71.5 -4q-10 -51 -38 -94t-66 -68q-41 -25 -78 -24.5t-68 16.5zM463 592q10 43 30.5 82.5t53.5 70.5 q66 66 137 52q-4 -51 -23.5 -97.5t-54.5 -76.5q-35 -31 -71.5 -37t-71.5 6zM474 1314q-1 46 13 89q29 88 99 110q23 -47 25.5 -99t-13.5 -97q-16 -43 -47 -65.5t-66 -26.5q-10 43 -11 89zM504 799q4 45 17 88t40 80q27 35 60.5 54t68.5 17q4 -51 -8 -101t-43 -85 q-29 -35 -64.5 -47t-70.5 -6zM512 1012q-4 45 2 89t29 85q41 82 114 92q14 -49 9.5 -100.5t-29.5 -92.5q-23 -41 -56.5 -58t-68.5 -15z" />
<glyph unicode="*" horiz-adv-x="1705" d="M383 559q-4 8 0 18.5t23 20.5q16 10 45.5 20.5t64.5 20.5q12 23 23.5 41t19.5 33q12 18 22.5 36.5t17.5 34t8 25.5t-7 12t-28.5 -10t-40 -32.5t-33 -47t-9.5 -51.5q-18 -4 -28 -4q-25 0 -21 22q2 12 17.5 37t39 48.5t51 39t58.5 8.5q27 -6 30 -22t-6 -41t-27.5 -53.5 t-35.5 -59.5l-2 -2q20 4 40 8.5t38 8.5q6 18 19 35q51 92 91 132t67.5 49t43 0t17.5 -16q-23 -6 -49.5 -23.5t-53 -44t-52.5 -60t-44 -68.5h12q2 -2 4 -6q4 -8 11 -15q10 23 26 47q12 20 22.5 28.5t20.5 12.5t21 0q6 -2 10 -6v-2q-4 -6 -9 -10t-11.5 -13.5t-15.5 -23.5 t-23 -41q-29 -53 -18 -48t34 40q14 23 33.5 46.5t36.5 39.5q16 23 29.5 30t23.5 5t20 -13q-59 -53 -71.5 -91t-14.5 -52q-4 -14 -3 -27.5t14 3.5q2 4 4 7t4 7l4 8q12 -16 0 -26.5t-25 -10.5q-18 -2 -30.5 23.5t16.5 85.5l2 2q-16 -18 -29.5 -39t-26 -36t-23.5 -23.5 t-23 -4.5q-16 6 -15.5 25.5t13.5 46.5q-8 2 -35 2q-35 -82 -34 -125t1 -47q-6 -2 -14 -4q-16 -4 -23 -2q-6 2 -14 6t-8 20.5t10 51.5t41 96q-31 -2 -78 -16q-10 -18 -18.5 -37t-16.5 -35l-16 -33q-16 -2 -27 0q-10 2 -16 5t0 14l12 18q4 10 11 20.5t16 24.5q-59 -23 -78 -37 t-23 -24q-8 8 -12 18zM723 498q0 4 3 15t21.5 21.5t56.5 16.5t109 2q27 -2 48.5 -3t42.5 -1q8 29 -5 63q-4 10 -6 20.5t-4 20.5q-37 -35 -70.5 -60.5t-48.5 -17.5q-27 16 -14.5 58.5t47.5 79.5q16 18 29.5 25t23.5 10q10 2 17 -3q23 -18 -15 -63q-16 -18 -32.5 -25.5 t-26.5 -9.5q-10 -18 -15 -33.5t1 -19.5q10 -6 38.5 18.5t63.5 57.5q-12 84 39 143q16 20 31.5 22.5t27.5 -4.5q12 -8 25 -24q-43 -14 -59.5 -43t-24.5 -51q20 20 32.5 34.5t14.5 14.5q8 8 12 4q2 -2 2 -4q-10 -12 -26.5 -31.5t-36.5 -42.5q-2 -20 3 -39.5t11 -38t12.5 -35 t6.5 -30.5q61 -4 79.5 1t30.5 23q8 -12 15 -20q4 -8 3 -17.5t-11 -15.5q-6 -4 -19 -6q-10 -2 -30.5 -3t-55.5 3q-16 2 -32.5 4t-32.5 4q-18 2 -35 4q-68 10 -112 8t-70.5 -10t-38 -19.5t-13.5 -19.5q2 -4 2 -6q0 -6 -4 -6q-4 -2 -8 8t-2 21zM879 487v9q61 -7 96 16 q41 -10 57 -10q-25 -23 -60.5 -31t-47.5 -10q-16 -2 -20.5 2t-14.5 12q-10 4 -10 12zM907 659q10 4 21.5 13.5t19.5 19.5t11 17.5t-1 9.5q-4 4 -20 -15.5t-31 -44.5zM1069 629.5q6 27.5 23 52.5q12 16 23 21.5t20 5.5q4 -2 8 -2t8 -2t6 -5h2l-2 -2q-8 -6 -16 -14 q-6 -8 -14.5 -19.5t-14.5 -27.5q-12 -33 -4 -45q2 -4 6 -4t13.5 7t25.5 42q18 33 18 65q-45 20 -53 41q-10 18 -2 29q6 10 21 10q20 0 37 -22q12 -18 12 -45q43 -14 86 -9t65 25q4 4 4 -11t-10 -26q-16 -16 -59 -16q-20 0 -42 5t-44 13q-2 -45 -24.5 -85t-57.5 -42h-4 q-18 0 -29 17q-8 16 -2 43.5zM1142 756q-1 0 1 -4q10 -20 26 -29q-4 16 -13 25.5t-13 9.5q0 -2 -1 -2z" />
<glyph unicode="," horiz-adv-x="352" d="M29 -27v193h121v-121l-74 -72h-47z" />
<glyph unicode="-" horiz-adv-x="1705" />
<glyph unicode="." horiz-adv-x="313" d="M57 45v121h121v-121h-121z" />
<glyph unicode="/" horiz-adv-x="851" d="M20 4l525 1573h196l-526 -1573h-195z" />
<glyph unicode="0" d="M-2 268v1018q0 53 19.5 101.5t53 84t80 57t99.5 25.5v2h385h2q55 0 104.5 -21.5t86 -58t57 -86t20.5 -104.5v-1018q0 -55 -20.5 -104t-57 -85t-86 -57.5t-104.5 -21.5h-2h-365h-2h-18q-53 4 -99.5 26.5t-80 58.5t-53 83t-19.5 100zM270 694l262 590h-14h-131 q-47 2 -82 -31.5t-35 -81.5v-477zM350 276q20 -4 35 -4h162q37 0 62.5 26t25.5 60v562z" />
<glyph unicode="1" horiz-adv-x="540" d="M6 1335l90 221h221h52v-1556h-273v600v272v463h-90z" />
<glyph unicode="2" horiz-adv-x="940" d="M4 268v332q0 86 42 150.5t120 103.5q53 27 111.5 39t117.5 22q18 2 44 5.5t49.5 8.5t40 11t16.5 16v215q0 47 -33 80t-80 33h-70q-35 0 -60.5 -25.5t-25.5 -60.5v-158h-272v246q0 55 21.5 104.5t58.5 86t86 58t104 21.5h2h269h2h20v-2q51 -4 97.5 -25.5t80 -57t53 -84 t19.5 -101.5v-332q0 -78 -42 -140t-118 -99q-49 -23 -105 -35t-112 -23q-18 -4 -43.5 -8t-50 -10t-44 -13.5t-26.5 -15.5v-10v-215q0 -47 33 -80t80 -33h408v-272h-521h-2h-20q-53 4 -98 26.5t-79 58.5t-53.5 83t-19.5 100z" />
<glyph unicode="3" horiz-adv-x="995" d="M4 0v272h600v332h-409v273h407l2 407h-600v272h617q53 -4 99 -25.5t81 -57t54 -84t19 -101.5v-278q0 -74 -36.5 -135.5t-96.5 -96.5q59 -35 96 -96t37 -135v-279q0 -55 -21.5 -104t-58 -85t-86 -57.5t-104.5 -21.5h-2h-598z" />
<glyph unicode="4" horiz-adv-x="1052" d="M0 328v272v956h272v-956h326v956h272v-1556h-272v328h-598z" />
<glyph unicode="5" d="M10 0v272h600l2 328h-329h-273v4v273v407v272h750v-272h-477v-407h329q55 0 104.5 -20.5t86.5 -57.5t58.5 -86t21.5 -105v-340q0 -55 -21.5 -104t-58.5 -85t-86 -57.5t-105 -21.5h-2h-600z" />
<glyph unicode="6" horiz-adv-x="1050" d="M0 268v1018q0 53 19.5 101.5t53 84t79 57t98.5 25.5v2h385h2q55 0 104.5 -21.5t86 -58t58 -86t21.5 -104.5v-153h-272v38q0 47 -35 81t-82 32h-131q-47 2 -82 -31.5t-35 -81.5v-299h383q51 0 98.5 -19t81 -54t54 -81t20.5 -97v-21h-2q2 -6 2 -20v-158v-70v-84 q0 -55 -21.5 -104t-58 -85t-86 -57.5t-104.5 -21.5h-2h-365h-2h-18q-53 4 -98.5 26.5t-79 58.5t-53 83t-19.5 100zM270 385q0 -47 34 -80t81 -33h162q37 0 62.5 26t25.5 60v64v178h-365v-215z" />
<glyph unicode="7" horiz-adv-x="1081" d="M2 1284v272h799h143l-543 -1556h-292l448 1284h-555z" />
<glyph unicode="8" horiz-adv-x="966" d="M0 252v4v12v248v84q0 109 68 182q-68 74 -68 172v86v246v14v5q0 4 1 5t1 3v6q0 6 2 8v6q0 4 2 6v7q2 2 2 6q0 2 1 3t1 3q0 6 2 8q0 4 2 6q0 4 2 6q0 4 2 6l2 5q0 2 1.5 3t1.5 3q2 2 2 6q2 2 2 3t2 3q0 2 1 3t1 3q2 2 2 3t2 3l2 4q2 2 2 3t2 4q2 2 2 4l6 6q0 2 2 4t2 3 t2 3t2 4l6 6q2 2 3 4l6 6q2 0 2 3q4 4 8 6v2q4 2 8 6q0 2 2 2q33 29 73 45t85 20v2h20h2h269h2h20v-2q45 -4 85 -20t73 -45l2 -2l6 -6q2 0 2 -2q4 -4 8 -6l2 -3l7 -6q0 -2 2 -4q4 -4 4 -6l4 -4q0 -2 4 -6q0 -2 1 -2t1 -2q4 -4 4 -6l4 -4q0 -2 4 -7q0 -2 2 -4t2 -3t2 -3 q0 -4 2 -6q0 -2 1 -3t1 -3q2 -2 2 -3t3 -3q0 -4 2 -6q0 -2 2 -5q0 -2 1 -3t1 -3t1 -3t1 -3t1 -3t1 -3t1 -4t1 -4t1 -3t1 -3q0 -4 2 -6v-7q0 -2 1 -3t1 -3v-6q2 -2 2 -8v-6v-8q2 -2 2 -5v-14v-246v-86q0 -98 -68 -172q68 -78 68 -182v-84v-248v-12q0 -4 -2 -4v-10v-4 q0 -6 -2 -9v-6q0 -2 -1 -3t-1 -5v-4q-2 -4 -2 -8q0 -2 -1 -3t-1 -3t-1 -3t-1 -4q0 -2 -1 -3t-1 -3t-1 -3t-1 -3t-1 -3t-1 -3t-1 -3t-1 -3q-2 -2 -2 -6l-5 -4q0 -2 -1 -3t-1 -3q-2 -2 -2 -7q-2 -2 -2 -3t-2 -3q0 -2 -1 -2t-1 -2q-4 -4 -4 -6l-4 -4l-4 -8l-2 -2q-4 -4 -4 -9 q-2 0 -2 -1t-2 -1q0 -2 -4 -6q-2 -2 -2 -4l-7 -6q-2 0 -2 -2q-6 -2 -8 -8h-2q-2 -2 -3 -4t-3 -4h-2q-68 -61 -158 -68h-20h-2h-269h-2h-20q-90 6 -158 68h-2q-2 2 -3 4t-5 4l-8 8l-2 2l-6 6q0 2 -3 4l-6 6l-2 2t-2 4.5t-2 4.5q-2 0 -2 2q-2 4 -6 8l-2 4q-2 2 -2 3t-2 3 q0 2 -1 2t-1 2q-2 2 -2 3t-2 3q0 2 -1 3t-1 4q-2 2 -2 3t-2 3q0 2 -2 4q0 2 -1.5 3t-1.5 3t-1 3t-1 3q-2 2 -2 6q-2 2 -2 6q-2 2 -2 6q-2 2 -2 7q0 2 -1 3t-1 3q0 4 -2 8v4q-2 4 -2 8v6q-2 2 -2 9v4q0 4 -1 5t-1 5zM272 385q0 -47 33 -80t80 -33h21h22q47 0 80 33t33 80v131 v84v10q-12 14 -54.5 24.5t-80.5 18.5q-39 -8 -81 -18t-53 -25v-10v-84v-131zM272 956q0 -10 13.5 -15t34 -10t44 -8t42.5 -5q20 2 43.5 5t44 8t34 10t13.5 15v84v131q0 47 -33 80t-80 33h-22h-21q-47 0 -80 -32.5t-33 -80.5v-131v-84z" />
<glyph unicode="9" d="M4 268v156h272v-39q0 -47 34 -81t81 -32h133q47 -2 81 32t34 81v299h-383q-53 0 -98 19.5t-80 54.5t-54.5 80t-19.5 98v18v21v160v69v82q0 55 21.5 104.5t57.5 86t85 58t104 21.5h4h363h2h21v-2q51 -4 97 -25.5t79.5 -57t53 -84t19.5 -101.5v-1018q0 -53 -19.5 -100 t-53 -83t-79.5 -58.5t-97 -26.5h-386h-4q-55 0 -104 21.5t-85 57.5t-57.5 85t-21.5 104zM276 954h363v217q0 47 -33 80t-80 33h-164q-35 0 -60.5 -25.5t-25.5 -60.5v-63v-181z" />
<glyph unicode=":" horiz-adv-x="313" d="M92 45v121h121v-121h-121zM92 541v118h121v-118h-121z" />
<glyph unicode=";" horiz-adv-x="339" d="M92 -27v193h121v-121l-74 -72h-47zM92 541v118h121v-118h-121z" />
<glyph unicode="&#x3c;" horiz-adv-x="2959" d="M66 748q43 68 114 88q70 14 117 -33q-23 -29 -52.5 -48.5t-66.5 -29.5q-35 -10 -63.5 -2t-48.5 25zM215 600q-2 33 9.5 66.5t37.5 64.5q55 59 121 60q6 -70 -45 -127q-25 -29 -56.5 -44.5t-66.5 -19.5zM221 977q33 8 65.5 3t55.5 -28q51 -45 41 -114q-70 -13 -119 26 q-23 18 -34 49t-9 64zM319 801q2 2 9 2h9t11 2h18.5t16.5 4q6 0 11 1t14 1q14 0 22 4h29q6 2 14 2h8h6q16 0 35 2t35 2h78h86q12 -4 23.5 -4h23.5q10 -2 23.5 -2h23.5q27 -4 50.5 -5t49.5 -5q53 -6 106.5 -12.5t111.5 -16.5q53 -8 111.5 -18t117.5 -21q59 -10 117.5 -21 t117.5 -20q59 -10 119 -20t119 -21q59 -10 116.5 -16t114.5 -12q14 -2 27.5 -2h28.5q6 -4 14 -4h14t12.5 -1.5t14.5 -1.5h28.5t26.5 -4h52h26h25h49h26q6 4 23 4h23.5t23.5 3q10 0 21.5 2t21.5 2q6 0 11.5 1t11.5 1h10q8 0 10 2q10 0 20.5 2t20.5 4h19q4 4 10 4h8 q18 4 34.5 7t33.5 7q16 2 30.5 5.5t26.5 5.5q12 6 27 6q8 6 20 6q10 2 18.5 5t16.5 3q12 2 18 6q4 2 6 2l-4 25q-4 0 -8 -2l-8 -4t-10 -4q-14 -2 -35 -9q-4 -2 -10.5 -4t-10.5 -2q-16 -4 -26 -4q-12 -4 -25.5 -7t-30.5 -7q-14 -4 -31.5 -7t-33.5 -5q-2 0 -4 -2.5t-4 -2.5 h-13q-4 0 -8 -1t-8 -1q-10 -2 -20.5 -2t-20.5 -4h-8q-6 -2 -12 -2q-14 0 -21 -4q-10 0 -21.5 -1t-23.5 -1t-23.5 -1t-21.5 -1h-25q-6 -4 -24 -4h-49h-25h-26h-52q-14 4 -26.5 4h-26.5h-14t-15 2h-26q-16 2 -28.5 2t-29.5 4q-53 4 -111.5 10.5t-117.5 16.5q-59 8 -117.5 17 t-117.5 20q-61 10 -120 21l-118 22q-115 20 -231 37q-53 10 -108.5 16t-106.5 10q-25 4 -50.5 6t-50.5 2q-12 4 -23.5 4t-25.5 2h-47q-23 4 -43.5 4.5t-42.5 0.5h-78q-16 -4 -34.5 -4.5t-35.5 -2.5h-8h-6h-14q-10 -4 -16.5 -4h-12.5t-13 -1t-14 -1q-4 0 -10 -1t-10 -1 q-10 0 -18.5 -2t-16.5 -2q-8 -2 -13 -2t-9 -2t-7 -2v-10zM383 627q-4 33 8 65.5t35 61.5q53 53 123 49q4 -70 -47 -121q-23 -27 -54.5 -40t-64.5 -15zM389 1004q68 12 119 -33q23 -25 34 -55.5t7 -63.5q-33 -4 -64.5 4t-54.5 31q-51 45 -41 117zM549 641q-4 31 7 62.5 t36 56.5q53 53 121 43q6 -70 -43 -119q-53 -47 -121 -43zM555 1014q70 10 117 -43q51 -51 41 -121q-31 0 -62.5 11t-56.5 34q-49 51 -39 119zM713 639q-4 70 43 117q55 51 123 35q2 -33 -9 -62.5t-34 -52.5q-27 -25 -59 -33t-64 -4zM719 1014q66 6 119 -49q23 -29 34 -62 t7 -63q-31 0 -63.5 13t-55.5 40q-51 53 -41 121zM879 629q-4 31 7 61.5t38 54.5q49 43 118 27q6 -68 -43 -115q-51 -41 -120 -28zM885 1004q68 0 116 -56q51 -59 41 -127q-31 2 -62 16.5t-56 41.5q-47 57 -39 125zM1042 608q-2 35 9.5 64.5t38.5 50.5q47 45 118 25 q2 -33 -9 -63t-36 -50q-25 -23 -56.5 -28t-64.5 1zM1049 985q33 -2 63.5 -17.5t54.5 -45.5q23 -29 34 -62t7 -63q-31 4 -63 18t-55 43q-51 57 -41 127zM1208 584q-4 33 7.5 62.5t35.5 49.5q51 43 121 23q6 -70 -43 -113q-27 -20 -57.5 -24t-63.5 2zM1212 958q72 -4 119 -63 q25 -29 35 -62.5t6 -64.5q-31 4 -62.5 19t-56.5 44q-47 59 -41 127zM1372 557q-4 70 43 111q51 43 123 22q2 -33 -9 -62.5t-36 -49.5q-53 -43 -121 -21zM1378 930q33 -2 64 -18.5t55 -45.5q47 -63 41 -127q-31 2 -63.5 18.5t-55.5 45.5q-25 29 -35 62.5t-6 64.5zM1538 526 q-4 33 7 62.5t36 50.5q51 43 121 23q6 -70 -45 -113q-51 -41 -119 -23zM1542 901q35 -2 65.5 -18.5t53.5 -44.5q51 -63 41 -127q-33 2 -63.5 17t-55.5 46q-47 57 -41 127zM1702 496q-2 35 9 64.5t34 47.5q51 45 123 27q2 -33 -9 -63t-38 -50q-49 -43 -119 -26zM1708 872 q33 -2 63.5 -17t55.5 -46q23 -29 34 -61.5t7 -63.5q-70 0 -119 61q-51 57 -41 127zM1868 473q-6 70 43 113q53 45 121 28q2 -33 -9 -62t-38 -52q-49 -45 -117 -27zM1872 846q35 -2 65.5 -15.5t53.5 -42.5q51 -57 41 -124q-70 0 -119 59q-23 25 -34 58.5t-7 64.5zM2032 453 q-4 68 43 116q51 41 123 35q2 -35 -9.5 -65.5t-38.5 -53.5q-51 -45 -118 -32zM2038 825q70 0 119 -51q23 -27 34 -59.5t7 -61.5q-70 -6 -119 49q-25 29 -35 62t-6 61zM2198 438q-4 33 7 65t36 54q53 49 120 43q4 -68 -43 -121q-53 -51 -120 -41zM2202 815q72 4 118 -47 q25 -23 35 -54.5t6 -64.5q-69 -10 -118 43q-47 53 -41 123zM2361 438q-2 31 9.5 64t33.5 57q51 49 123 49q2 -29 -9 -61.5t-36 -59.5q-27 -29 -57.5 -40t-63.5 -9zM2367 811q70 10 119 -37q23 -23 34 -52.5t9 -64.5q-33 -6 -65.5 3t-55.5 32q-51 51 -41 119zM2527 446 q-4 35 7.5 67t37.5 58q25 29 56.5 44.5t62.5 19.5q4 -33 -8 -65.5t-35 -61.5q-53 -61 -121 -62zM2531 823q35 6 66 0t53 -28q27 -20 37 -49t6 -64q-68 -18 -121 25q-47 47 -41 116z" />
<glyph unicode="&#x3e;" horiz-adv-x="3045" d="M170 879l4 -25q2 0 6 2t9.5 3t11.5 5q14 2 35 8q4 2 10 4.5t10 2.5q16 4 27 4q12 4 25.5 7t29.5 7q14 4 31.5 7t33.5 5q2 0 4.5 2t4.5 2h12q4 0 8 1t8 1q10 2 20.5 2.5t20.5 4.5h8q6 2 13 2q14 0 20 4q10 0 21.5 1t23.5 1t23.5 1t21.5 1h25q6 4 25 4h49h24h27h51 q14 -4 26.5 -4h26.5h14.5t14.5 -2h27q16 -2 28.5 -2t28.5 -4q53 -4 111.5 -10.5t117.5 -16.5q59 -8 117.5 -17.5t118.5 -19.5q61 -10 119.5 -21.5t117.5 -21.5q115 -20 232 -37q53 -10 108.5 -16t106.5 -10q25 -4 50.5 -6.5t49.5 -2.5q12 -4 23.5 -4t25.5 -2h47 q23 -4 43.5 -4h42.5h78q16 4 35 4t35 2h8h6h15q10 4 16 4h12t13.5 1.5t13.5 1.5q4 0 10 1t10 1q10 0 18.5 2t16.5 2q14 0 23 4q4 2 6 2v10q-4 -2 -8 -2t-9.5 -1t-11.5 -1h-18t-17 -4q-6 0 -11 -1t-13 -1q-14 0 -23 -4h-28q-6 -2 -15 -2h-8h-6q-16 0 -34.5 -2t-35.5 -2h-78 h-86q-12 4 -23 4h-24q-10 2 -23 2h-24q-27 4 -50 5t-50 5q-53 6 -106.5 12t-110.5 17q-53 8 -111.5 18t-118.5 21q-59 10 -117.5 21t-117.5 19q-59 10 -118.5 20.5t-119.5 20.5q-59 10 -116.5 16.5t-114.5 12.5q-14 2 -27.5 2h-27.5q-6 4 -14.5 4h-14.5t-12 1t-15 1h-28.5 t-26.5 4h-51h-27h-24h-49h-27q-6 -4 -23 -4h-23.5t-23.5 -2q-10 0 -21.5 -2t-21.5 -2q-6 0 -11 -1t-11 -1h-11q-8 0 -10 -2q-10 0 -20 -2t-21 -4h-18q-4 -4 -10 -4h-9q-18 -4 -34.5 -7t-32.5 -7q-16 -2 -30.5 -5.5t-27.5 -5.5q-12 -6 -26 -6q-10 -6 -21 -6q-10 -2 -18 -5 t-16 -3q-6 -4 -10.5 -4t-8.5 -2t-6 -2zM352 889q68 18 121 -25q47 -47 41 -116q-35 -6 -65.5 0t-53.5 28q-27 20 -37 49t-6 64zM354 936q-4 33 8 65.5t35 61.5q51 61 121 61q4 -35 -7 -66.5t-38 -58.5q-25 -29 -56.5 -44t-62.5 -19zM516 913q33 6 65.5 -2.5t55.5 -31.5 q51 -51 41 -119q-70 -10 -119 37q-23 23 -34 52.5t-9 63.5zM518 963q-2 29 9 61t36 59q27 29 57.5 40.5t63.5 9.5q2 -31 -9 -64t-34 -57q-53 -49 -123 -49zM684 922q70 10 119 -43q47 -53 41 -123q-72 -4 -119 47q-25 23 -35 54.5t-6 64.5zM684 971q-4 68 43 121 q53 51 121 41q4 -33 -7.5 -65t-35.5 -54q-53 -49 -121 -43zM848 918q70 5 119 -50q25 -29 35 -61.5t6 -61.5q-70 0 -119 52q-23 27 -34 59.5t-7 61.5zM848 967q-2 35 9 65t38 53q51 45 119 33q4 -68 -43 -117q-51 -41 -123 -34zM1014 907q70 0 119 -59q23 -25 34 -58.5 t7 -64.5q-35 2 -66 15.5t-53 41.5q-51 57 -41 125zM1014 956q-2 33 9 62.5t38 52.5q49 45 117 27q6 -70 -43 -113q-53 -45 -121 -29zM1178 887q69 -1 118 -62q51 -57 41 -127q-33 2 -63.5 17.5t-54.5 46.5q-23 29 -34 61.5t-7 63.5zM1178 936q-2 33 9 63t38 50q49 43 118 26 q2 -35 -9 -64.5t-34 -47.5q-51 -45 -122 -27zM1343 860q33 -2 63.5 -17t55.5 -46q47 -57 41 -127q-35 2 -65.5 18.5t-53.5 44.5q-51 63 -41 127zM1343 909q-5 70 46 113q51 41 118 22q4 -33 -7 -62.5t-36 -49.5q-51 -43 -121 -23zM1507 831q31 -2 63.5 -18t55.5 -45 q25 -29 35 -62.5t6 -64.5q-66 4 -119 64q-47 63 -41 126zM1507 881q-2 33 9 62.5t36 49.5q53 43 121 21q4 -70 -43 -111q-51 -43 -123 -22zM1673 803q31 -4 62.5 -19.5t56.5 -44.5q47 -59 41 -127q-72 4 -119 64q-25 29 -35 62.5t-6 64.5zM1673 852q-6 70 43 113 q27 20 57.5 24t63.5 -2q4 -33 -7 -62.5t-36 -50.5q-51 -43 -121 -22zM1837 774q31 -4 63.5 -18t55.5 -43q51 -57 41 -127q-33 2 -63.5 17t-55.5 46q-23 29 -34 61.5t-7 63.5zM1837 823q-2 33 9 63t36 50q25 23 56.5 28t64.5 -1q2 -35 -9.5 -65t-37.5 -50q-47 -45 -119 -25z M2003 750q31 -2 62.5 -16.5t56.5 -41.5q47 -57 39 -125q-68 0 -117 56q-51 59 -41 127zM2003 799q-6 67 43 114q51 41 121 29q4 -31 -7.5 -61.5t-37.5 -55.5q-49 -43 -119 -26zM2167 731q31 0 63.5 -13t55.5 -40q51 -53 41 -121q-66 -6 -119 49q-23 29 -34 61.5t-7 63.5z M2167 780q-2 33 9 62.5t34 52.5q27 25 58.5 33t64.5 4q4 -70 -43 -117q-55 -51 -123 -35zM2333 721q31 0 62 -11t56 -34q49 -51 39 -119q-70 -10 -116 43q-51 51 -41 121zM2333 768q-6 70 43 119q53 47 121 43q4 -31 -7.5 -62.5t-35.5 -56.5q-53 -53 -121 -43zM2497 719 q33 4 64 -4t54 -31q51 -45 41 -117q-68 -12 -119 33q-23 25 -34 55.5t-6 63.5zM2497 768q-4 70 47 121q23 27 54.5 40t63.5 15q4 -33 -8 -65.5t-35 -61.5q-53 -53 -122 -49zM2662 733q70 13 119 -26q23 -18 34 -49t9 -64q-33 -8 -65.5 -3t-55.5 27q-51 45 -41 115zM2662 780 q-6 70 45 127q25 29 57 44.5t66 19.5q2 -33 -9 -67t-38 -64q-55 -59 -121 -60zM2748 768q47 60 119 78q35 10 63.5 2t49.5 -25q-43 -68 -115 -88q-70 -14 -117 33z" />
<glyph unicode="A" horiz-adv-x="1222" d="M6 618q8 14 21 25q10 10 28.5 17.5t44.5 7.5q6 0 13.5 -1t11.5 -1l160 917h73h119h84h123h70l276 -1583h-278l-58 334h-348l-59 -334h-277l92 526l-2 -2q-12 35 -32.5 60.5t-61.5 33.5zM393 610h254l-121 697h-12z" />
<glyph unicode="B" horiz-adv-x="1222" d="M2 608q8 14 21 25q10 10 27.5 17t43.5 7v641v275h641h2q55 0 105.5 -21.5t87.5 -58.5t58.5 -86t21.5 -104v-281q0 -74 -38 -136.5t-98 -97.5q59 -35 97.5 -96t38.5 -135v-281q0 -55 -20.5 -102t-55.5 -84t-82 -59.5t-100 -24.5h-383h-275v275v235q-10 35 -30.5 60.5 t-61.5 31.5zM369 281h284q35 0 59.5 23.5t24.5 57.5l-2 166q0 35 -23.5 58.5t-58.5 23.5h-284v-329zM369 885h286q35 0 58.5 23.5t23.5 58.5l-2 250q0 35 -23.5 58t-58.5 23h-284v-413z" />
<glyph unicode="C" horiz-adv-x="1222" d="M4 604q8 14 21 25q10 10 27.5 17t43.5 7v645q0 53 19.5 101.5t54.5 84.5t80 58.5t98 26.5h389h2q55 0 104.5 -21.5t86.5 -58.5t58.5 -86t21.5 -105v-155h-273v39q-1 46 -35 80q-33 32 -76 32h-5h-134h-5q-44 0 -76 -32q-34 -34 -35 -80v-793q0 -47 33.5 -80t80.5 -33h164 q37 0 62.5 26t25.5 60v64h273v-154q0 -55 -21.5 -104t-58.5 -86t-86 -58.5t-105 -21.5h-2h-366h-2h-21q-53 4 -98 26.5t-80 58.5t-54.5 84t-19.5 101v240q-10 35 -30.5 60.5t-61.5 31.5z" />
<glyph unicode="D" horiz-adv-x="1167" d="M4 602q8 14 21 25q10 10 27.5 17t43.5 7v641v275h639h2q57 0 106.5 -21.5t86.5 -58.5t58.5 -86t21.5 -105v-1026q0 -55 -21.5 -104t-58.5 -86t-86 -58.5t-107 -21.5h-2h-366h-273v274v236q-12 35 -32.5 60.5t-59.5 31.5zM369 274h252q47 0 80.5 33t33.5 80v793 q0 47 -33.5 79.5t-80.5 32.5h-252v-1018z" />
<glyph unicode="E" horiz-adv-x="1110" d="M4 600q8 14 21 25q10 10 27.5 17t43.5 7v228v413v275h805v-275h-530v-413h327v-275h-327v-330h530v-274h-805v274v236q-10 35 -30.5 60.5t-61.5 31.5z" />
<glyph unicode="F" d="M-2 602q8 14 20 25q10 10 27.5 17t44.5 7v228v413v275h805v-275h-533v-413h330v-275h-330v-604h-272v510q-12 35 -32.5 60.5t-59.5 31.5z" />
<glyph unicode="G" horiz-adv-x="1251" d="M0 602q8 14 20 25q10 10 28 17t44 7v645q0 53 19.5 101.5t53.5 84.5t80 58.5t99 26.5h387h4q55 0 104.5 -21.5t86.5 -58.5t58.5 -86t21.5 -105v-155h-275v39q0 47 -33 80q-32 32 -77 32h-5h-133h-5q-46 0 -78 -32q-33 -33 -33 -80v-793q0 -47 32.5 -80t79.5 -33h166 q35 0 60.5 26t25.5 60v64v180h-227v275h502v-23v-252v-180v-70v-84q0 -55 -21.5 -104t-58.5 -86t-86 -58.5t-105 -21.5h-4h-364h-5h-18q-53 4 -99 26.5t-80 58.5t-53.5 84t-19.5 101v240q-10 35 -31.5 60.5t-60.5 31.5z" />
<glyph unicode="H" horiz-adv-x="1165" d="M-6 604q8 14 20 25q10 10 27.5 17t44.5 7v228v688h274v-688h324v688h274v-688v-275v-604h-274v604h-324v-604h-274v510q-10 35 -31.5 60.5t-60.5 31.5z" />
<glyph unicode="I" horiz-adv-x="598" d="M14 614q8 14 21 25q10 10 27.5 17.5t43.5 7.5v217v688h273v-1567h-273v520q-12 35 -32.5 59.5t-59.5 32.5z" />
<glyph unicode="J" d="M0 274v154h274v-63q0 -35 26 -60.5t60 -25.5h166q47 0 80 32.5t33 79.5v123q-10 35 -30.5 60.5t-61.5 31.5q8 14 20 25q10 10 27.5 17t44.5 7v529v387h274v-1297q0 -53 -19.5 -101t-53 -84t-79.5 -58.5t-99 -26.5h-19h-4h-365h-4q-55 0 -104 21.5t-86 58.5t-58.5 86 t-21.5 104z" />
<glyph unicode="K" horiz-adv-x="1081" d="M4 606q8 14 21 25q10 10 27.5 17t43.5 7v916h275v-688h102l254 688h274l-284 -768l244 -799h-275l-184 604h-131v-604h-275v510q-10 35 -30.5 60.5t-61.5 31.5z" />
<glyph unicode="L" d="M4 606q8 14 21 25q10 10 27.5 17t43.5 7v916h275v-1292h530v-275h-530h-275v275v235q-10 35 -31.5 60.5t-60.5 31.5z" />
<glyph unicode="M" horiz-adv-x="1648" d="M4 616q8 14 21 25q10 10 27.5 17.5t43.5 7.5v905h123h152h123l274 -1045l272 1045h123h152h123v-1567h-275v989l-260 -989h2h-2h-272l-260 989v-989h-275v520q-10 35 -30.5 59.5t-61.5 32.5z" />
<glyph unicode="N" horiz-adv-x="1138" d="M-2 616q8 14 20 25q10 10 27.5 17.5t44.5 7.5v905h123h152h122l252 -965v965h275v-1567h-117h-158h-116l-258 989v-989h-275v520q-10 35 -31.5 59.5t-60.5 32.5z" />
<glyph unicode="O" horiz-adv-x="1165" d="M-2 616q8 14 20 25q10 10 27.5 17.5t44.5 7.5v634q0 53 19.5 101.5t53.5 84.5t80 58.5t99 26.5h387h4q55 0 104.5 -21.5t86.5 -58.5t58.5 -86t21.5 -105v-1026q0 -55 -21.5 -104t-58.5 -86t-86.5 -58.5t-104.5 -21.5h-4h-364h-5h-18q-53 4 -99 26.5t-80 58.5t-53.5 84 t-19.5 101v250q-10 35 -31.5 59.5t-60.5 32.5zM365 391q0 -47 32.5 -79.5t79.5 -32.5h166q35 0 60.5 25.5t25.5 60.5v819q1 46 -33 80q-32 32 -78 32h-6h-131h-5q-46 0 -78 -32q-34 -34 -33 -80v-793z" />
<glyph unicode="P" horiz-adv-x="1138" d="M-2 606q8 14 20 25q10 10 27.5 17t44.5 7v641v275h639h4q55 0 104.5 -21.5t86.5 -58.5t58.5 -86t21.5 -105v-413q0 -55 -21.5 -104.5t-58.5 -85t-86.5 -57.5t-104.5 -22v-10h-368v-604h-275v510q-12 35 -32.5 60.5t-59.5 31.5zM365 883h278q37 0 62.5 26.5t25.5 63.5v235 q0 37 -26.5 62.5t-63.5 25.5h-276v-413z" />
<glyph unicode="Q" horiz-adv-x="1280" d="M8 612q8 14 21 25q10 10 27.5 17.5t43.5 7.5v634q0 53 19.5 101.5t53.5 84.5t80 58.5t99 26.5h387h2q57 0 106.5 -21.5t86.5 -58.5t58.5 -86t21.5 -105v-1022h125v-274h-398h-2h-366h-2h-19q-53 4 -99 26.5t-80 58.5t-53.5 84t-19.5 101v250q-12 35 -32.5 59.5 t-59.5 32.5zM373 387q0 -47 33.5 -80t80.5 -33h95h69q37 0 62.5 26t25.5 60v820q0 47 -33 80q-32 32 -78 32h-5h-134h-5q-44 0 -76 -32q-35 -33 -35 -80v-793z" />
<glyph unicode="R" horiz-adv-x="1138" d="M-6 602q8 14 20 25q10 10 27.5 17t44.5 7v641v275h639l4 -8v8q55 0 104.5 -21.5t86 -58.5t58 -86t21.5 -105v-411q0 -55 -21.5 -104.5t-58 -86.5t-86 -58.5t-104.5 -21.5v-2l186 -612h-272l-186 604h-97v-604h-274v510q-10 35 -31.5 60.5t-60.5 31.5zM360 879h269 q41 0 70.5 29.5t29.5 70.5v215q0 41 -29.5 69.5t-70.5 28.5h-269v-413z" />
<glyph unicode="S" horiz-adv-x="937" d="M2 963h2v333q0 53 19.5 101.5t53.5 84.5t80 58.5t99 26.5h18h2h271h4q55 0 104.5 -21.5t86 -58.5t58 -86t21.5 -105v-249h-274v159q0 35 -25.5 60.5t-60.5 25.5h-70q-47 0 -81 -32.5t-34 -79.5v-217q0 -10 16.5 -16.5t40 -10.5t48.5 -7t43 -7q59 -10 118.5 -22.5 t112.5 -39.5q78 -39 120 -104.5t42 -151.5h4v-334q0 -53 -19.5 -101t-53 -84t-79.5 -58.5t-100 -26.5h-18h-4h-271h-2q-55 0 -104 21.5t-86 58.5t-58.5 86t-21.5 104v250h272v-160q0 -35 27 -60.5t62 -25.5h69q47 0 80 33t33 80v123q-10 35 -41 60.5t-70 31.5q2 6 10 14 q6 6 14.5 13.5t22.5 13.5q-29 6 -56.5 11t-45.5 10q-57 10 -113.5 21t-107.5 36q-76 37 -117 99.5t-41 142.5z" />
<glyph unicode="T" horiz-adv-x="966" d="M0 1292v275h264h275h266v-275h-266v-1292h-275v510q-10 35 -30.5 60.5t-61.5 31.5q8 14 21 25q10 10 27.5 17t43.5 7v641h-264z" />
<glyph unicode="U" horiz-adv-x="1138" d="M-2 612q8 14 20 25q10 10 27.5 17.5t44.5 7.5v634v271h252h23v-709v-393v-78q0 -47 32.5 -80t79.5 -33h164q37 0 62.5 26t25.5 60v498v709h275v-250v-21v-1026q0 -55 -21.5 -104t-58.5 -86t-86.5 -58.5t-104.5 -21.5h-4h-364h-5h-18q-53 4 -99 26.5t-80 58.5t-53.5 84 t-19.5 101v250q-12 35 -32.5 59.5t-59.5 32.5z" />
<glyph unicode="V" horiz-adv-x="1081" d="M14 1567h275l223 -1293h12l224 1293h274l-272 -1567h-72h-119h-82h-121h-69l-92 520q-10 35 -32 59.5t-61 32.5q8 12 17 21q18 18 53 26z" />
<glyph unicode="W" horiz-adv-x="1792" d="M0 1567h274l224 -1293h12l223 1293h2h273h2l223 -1293h12l223 1293h275l-273 -1567h-71h-119h-82h-121h-69l-136 780l-137 -780h-71h-119h-82h-121h-70l-90 520h-2q-10 35 -30.5 59.5t-61.5 32.5q8 12 16 21q18 18 54 26z" />
<glyph unicode="X" horiz-adv-x="1167" d="M-8 1567h274l254 -688h6l256 688h273l-285 -768l244 -799h-275l-184 604h-63l-185 -604h-274l160 522q-10 31 -32 52.5t-57 27.5q8 14 21 25q10 10 27.5 17t44.5 7q14 0 34 -4l45 152z" />
<glyph unicode="Y" horiz-adv-x="1081" d="M12 1569h275l221 -592l219 592h274l-356 -963v-604h-274v510q-12 35 -33 60.5t-59 31.5q6 10 16 21q10 8 23.5 16t35.5 12z" />
<glyph unicode="Z" horiz-adv-x="1165" d="M0 0l248 514q-10 35 -30.5 58.5t-59.5 29.5q8 14 20 25q10 10 27.5 17t44.5 7q33 0 57 -14l318 655h-523v275h807h142l-625 -1293h625v-274h-1031h-20z" />
<glyph unicode="[" horiz-adv-x="862" d="M45 1069q35 2 68.5 -17.5t60.5 -54.5q27 -37 40 -80t17 -88q-35 -6 -70.5 6.5t-64.5 47.5q-31 35 -43 85t-8 101zM51 827q35 8 70.5 -6t66.5 -45q33 -31 53.5 -70.5t30.5 -82.5q-35 -12 -71.5 -6t-71.5 36q-35 31 -54.5 77t-23.5 97zM68 1208.5q-5 51.5 10 100.5 q74 -10 115 -92q23 -41 28.5 -85.5t1.5 -89.5q-35 -2 -68.5 15.5t-56.5 58.5q-25 41 -30 92.5zM94 592q35 12 72 4t72 -33q37 -27 63.5 -63.5t42.5 -77.5q-31 -16 -67.5 -16t-77.5 24q-39 25 -67 68t-38 94zM124 1445q3 52 26 99q69 -22 98 -110q14 -43 13 -89.5t-11 -89.5 q-35 4 -65.5 27t-47.5 66q-16 45 -13 97zM174 365q64 34 148 -7q41 -20 72.5 -52t54.5 -70q-27 -23 -65 -28t-81 13t-76.5 57t-52.5 87zM228 997.5q3 200.5 65 393.5q2 6 8 6q4 -3 4 -11q-61 -190 -61 -388.5t55 -387t165.5 -356.5t272.5 -299q14 -10 6 -18q-6 -10 -20 0 q-164 135 -275.5 306t-167 362.5t-52.5 392zM252 1040q-2 45 15 86t50 70q31 29 68 35t70 -4q-10 -78 -70 -135q-61 -57 -133 -52zM258 834q-6 43 3 85.5t38 75.5t63.5 44.5t69.5 7.5q0 -80 -49 -144q-51 -66 -125 -69zM276 1249q6 45 30 83t61 61t73.5 24.5t67.5 -14.5 q-10 -37 -32.5 -70t-57.5 -55q-70 -47 -142 -29zM287.5 715q2.5 45 25.5 80q23 37 55.5 54t67.5 17q12 -76 -24 -149q-43 -72 -113 -88q-14 41 -11.5 86zM289 150q57 45 147 18q43 -14 81 -42t67 -63q-23 -27 -59 -38t-83 2q-47 12 -87 44.5t-66 78.5zM293 1497q2 47 24 94 q23 47 59 79t77 42q10 -84 -31 -172q-43 -84 -115 -127q-16 37 -14 84zM345 517q-3 44 13 83q16 41 46 62.5t65 27.5q10 -35 11 -73.5t-13 -77.5q-29 -78 -96 -105q-23 39 -26 83zM434 329q-10 44 0 85t35 67.5t59 38.5q16 -35 23.5 -72.5t-0.5 -78.5q-16 -84 -78 -119 q-29 35 -39 79zM539 240q4 43 24.5 73.5t50.5 46.5q23 -31 36.5 -68.5t11.5 -78.5q0 -41 -14.5 -75t-43.5 -56q-33 33 -51 75t-14 83z" />
<glyph unicode="\" horiz-adv-x="1705" />
<glyph unicode="]" horiz-adv-x="915" d="M72 -94q2 -4 8 -4t10 4q164 135 275.5 306t167 362.5t52.5 392t-65 393.5q0 6 -8 6q-4 -4 -2 -10q59 -190 60 -389t-55 -387.5t-166.5 -356.5t-272.5 -299q-12 -12 -4 -18zM152 182q0 -41 14 -74.5t43 -56.5q35 33 52 75t15 83q-4 43 -24.5 73.5t-50.5 47.5 q-49 -66 -49 -148zM229 33q31 35 68 62.5t80 41.5q43 12 81 8t66 -26q-27 -45 -66.5 -78t-84.5 -45q-47 -12 -84 -1t-60 38zM262 338q16 -84 80 -119q27 35 38 79t1 85t-36 67.5t-58 38.5q-37 -68 -25 -151zM305 1372q12 -37 34.5 -69.5t57.5 -55.5q70 -47 140 -28 q-6 45 -29.5 82.5t-58.5 60.5q-37 23 -74 25t-70 -15zM346 659q-27 -74 2 -151q25 -78 96 -105q20 39 24.5 83t-11.5 83q-16 41 -46 62.5t-65 27.5zM358 1196q12 -82 70 -135q61 -57 135 -51q0 45 -16 85.5t-49 69.5t-69 35t-71 -4zM362 1681q39 -10 75 -41.5t59 -78.5 t25.5 -94.5t-13.5 -84.5q-35 20 -65 52t-50 75q-43 88 -31 172zM365 205q23 39 55.5 71t73.5 52q82 41 145 6q-16 -47 -51 -86t-78 -58q-43 -18 -80 -13t-65 28zM378 761q5 -38 25 -75q39 -72 113 -88q14 41 11.5 86t-25.5 80q-23 37 -55.5 54.5t-67.5 17.5q-6 -37 -1 -75z M383 1016q0 -82 47 -144q51 -66 125 -69q8 43 -2 86t-39 76q-27 33 -61.5 44t-69.5 7zM469 391q16 41 42.5 77.5t63.5 63.5q37 25 74 33t70 -4q-10 -51 -37 -94t-68 -68q-39 -25 -76.5 -24.5t-68.5 16.5zM543 592q10 43 30.5 82.5t51.5 70.5q33 31 68.5 45.5t70.5 6.5 q-4 -51 -24.5 -97.5t-55.5 -76.5q-35 -31 -72 -37t-69 6zM553 1314q0 46 14 89q29 88 99 110q23 -47 24.5 -99t-14.5 -97q-16 -43 -47 -65.5t-66 -26.5q-10 43 -10 89zM582 799q4 45 17 88t42 80q27 35 59.5 54t67.5 17q6 -51 -7 -101t-42 -85t-66 -47t-71 -6zM590 1012 q-10 94 31 174q45 82 116 92q12 -49 7 -100.5t-27 -92.5q-25 -41 -58.5 -58t-68.5 -15z" />
<glyph unicode="_" horiz-adv-x="2988" />
<glyph unicode="a" horiz-adv-x="1136" d="M8 618q8 14 21 25q10 10 27.5 17.5t43.5 7.5q8 0 14.5 -1t12.5 -1l160 917h73h119h84h123h70l274 -1583h-276l-58 334h-350l-57 -334h-277l92 526l-4 -2q-10 35 -30.5 60.5t-61.5 33.5zM395 610h252l-119 697h-12z" />
<glyph unicode="b" horiz-adv-x="1165" d="M14 602q8 14 21 25q10 10 27.5 17t43.5 7v641v275h639h5q55 0 104 -21.5t86 -58.5t58.5 -86t21.5 -105v-280q0 -74 -37 -136.5t-98 -97.5q61 -35 98 -96t37 -135v-281q0 -55 -19.5 -102t-54.5 -84t-82 -59.5t-100 -24.5h-383h-275v272v238q-12 35 -32.5 60.5t-59.5 31.5z M381 272h285q35 0 58.5 25t23.5 59v166q0 35 -25 58.5t-59 23.5h-283v-332zM381 879h285q35 0 58.5 23.5t23.5 58.5v249q0 35 -24 58.5t-58 23.5h-285v-413z" />
<glyph unicode="c" horiz-adv-x="1138" d="M2 602q8 14 21 25q10 10 27.5 17t43.5 7v645q0 53 19.5 100.5t53.5 84.5t80 59.5t99 26.5h387h4q55 0 104.5 -21.5t86.5 -58.5t58.5 -86t21.5 -105v-155h-275v37q1 48 -33 82q-32 32 -77 32h-5h-133h-5q-46 0 -78 -32q-34 -34 -33 -82v-791q0 -47 32.5 -81t79.5 -34h166 q35 0 60.5 27t25.5 61v64h275v-154q0 -55 -21.5 -104t-58.5 -86t-86 -58.5t-105 -21.5h-4h-364h-4h-19q-53 4 -99 26.5t-80 58.5t-53.5 84t-19.5 101v240q-10 35 -31.5 60.5t-60.5 31.5z" />
<glyph unicode="d" horiz-adv-x="1136" d="M6 602q8 14 21 25q10 10 27.5 17t43.5 7v641v275h639h2q57 0 106.5 -21.5t86.5 -58.5t58.5 -86t21.5 -105v-1026q0 -55 -21.5 -104t-58.5 -86t-86 -58.5t-107 -21.5h-2h-366h-273v272v238q-12 35 -32.5 60.5t-59.5 31.5zM371 272h252q47 0 80.5 34t33.5 81v791 q0 47 -33.5 80.5t-80.5 33.5h-252v-1020z" />
<glyph unicode="e" d="M-10 602q8 14 20 25q10 10 27.5 17t44.5 7v228v413v275h805v-275h-531v-413h330v-275h-330v-332h531v-272h-805v272v238q-10 35 -30.5 60.5t-61.5 31.5z" />
<glyph unicode="f" horiz-adv-x="937" d="M-6 602q8 14 20 25q10 10 27.5 17t44.5 7v228v413v275h805v-275h-531v-413h328v-275h-328v-604h-274v510q-12 35 -32.5 60.5t-59.5 31.5z" />
<glyph unicode="g" horiz-adv-x="1165" d="M-6 602q8 14 20 25q10 10 27.5 17t44.5 7v645q0 53 19.5 100.5t54.5 84.5t80 59.5t98 26.5h389h2q55 0 104.5 -21.5t86 -58.5t58 -86t21.5 -105v-155h-272v37q0 49 -35 82q-33 32 -77 32h-5h-133h-5q-44 0 -77 -32q-35 -33 -35 -82v-791q0 -47 34 -81t81 -34h164 q35 0 61.5 27t26.5 61v64v180h-229v275h501v-23v-252v-180v-70v-84q0 -55 -21.5 -104t-58 -86t-86 -58.5t-104.5 -21.5h-2h-367h-2h-20q-53 4 -98 26.5t-80 58.5t-54.5 84t-19.5 101v240q-10 35 -30.5 60.5t-61.5 31.5z" />
<glyph unicode="h" horiz-adv-x="1110" d="M-2 602q8 14 20 25q10 10 27.5 17t44.5 7v228v688h275v-688h323v688h275v-688v-275v-604h-275v604h-323v-604h-275v510q-10 35 -31.5 60.5t-60.5 31.5z" />
<glyph unicode="i" horiz-adv-x="512" d="M4 610q8 14 21 25q10 10 27.5 18.5t43.5 8.5v217v688h273v-1567h-273v518q-12 35 -32.5 60.5t-59.5 31.5z" />
<glyph unicode="j" horiz-adv-x="1052" d="M2 270v154h274v-64q0 -35 26 -61.5t60 -26.5h164q47 0 81 34t34 81v123q-10 35 -31.5 60.5t-60.5 31.5q8 14 20 25q10 10 27.5 17t44.5 7v527v389h274v-1297q0 -53 -19 -101t-53 -84t-80 -58.5t-99 -26.5h-19h-4h-365h-4q-55 0 -104 21.5t-86 58.5t-58.5 86t-21.5 104z " />
<glyph unicode="k" horiz-adv-x="1110" d="M2 602q8 14 21 25q10 10 27.5 17t43.5 7v916h275v-688h102l254 688h274l-284 -768l243 -799h-274l-184 604h-131v-604h-275v510q-10 35 -30.5 60.5t-61.5 31.5z" />
<glyph unicode="l" d="M8 602q8 14 21 25q10 10 27.5 17t43.5 7v916h275v-1295h530v-272h-530h-275v272v238q-10 35 -30.5 60.5t-61.5 31.5z" />
<glyph unicode="m" horiz-adv-x="1564" d="M-2 610q8 14 20 25q10 10 27.5 18.5t44.5 8.5v905h123h152h122l275 -1045l272 1045h123h152h123v-1567h-275v989l-258 -989h-2h-272l-260 989v-989h-275v518q-10 35 -30.5 60.5t-61.5 31.5z" />
<glyph unicode="n" horiz-adv-x="1165" d="M4 610q8 14 21 25q10 10 27.5 18.5t43.5 8.5v905h123h152h121l253 -965v965h275v-1567h-117h-158h-116l-258 989v-989h-275v518q-12 35 -32.5 60.5t-59.5 31.5z" />
<glyph unicode="o" horiz-adv-x="1136" d="M-2 610q8 14 20 25q10 10 27.5 18.5t44.5 8.5v634q0 53 19.5 100.5t53.5 84.5t80 59.5t99 26.5h387h2q57 0 106.5 -21.5t86.5 -58.5t58.5 -86t21.5 -105v-1026q0 -55 -21.5 -104t-58.5 -86t-86.5 -58.5t-106.5 -21.5h-2h-367h-2h-18q-53 4 -99 26.5t-80 58.5t-53.5 84 t-19.5 101v248q-12 35 -32.5 60.5t-59.5 31.5zM362 387q0 -47 34 -81t81 -34h164q37 0 62.5 27t25.5 61v818q1 48 -33 82q-32 32 -78 32h-6h-133h-5q-44 0 -77 -32q-35 -34 -35 -82v-791z" />
<glyph unicode="p" horiz-adv-x="1136" d="M-2 602q8 14 20 25q10 10 27.5 17t44.5 7v641v275h641h2q55 0 104.5 -21.5t86.5 -58.5t58.5 -86t21.5 -105v-413q0 -55 -21.5 -104.5t-57.5 -86.5t-85 -58.5t-105 -21.5l-2 -8h-368v-604h-275v510q-10 35 -30.5 60.5t-61.5 31.5zM365 879h278q37 0 63.5 25.5t26.5 64.5 l-2 235q0 37 -25.5 62.5t-62.5 25.5h-278v-413z" />
<glyph unicode="q" horiz-adv-x="1280" d="M8 610q8 14 21 25q10 10 27.5 18.5t43.5 8.5v634q0 53 19.5 100.5t53.5 84.5t80 59.5t99 26.5h387h2q57 0 106.5 -21.5t86.5 -58.5t58.5 -86t21.5 -105v-1024h125v-272h-398h-2h-366h-2h-19q-53 4 -99 26.5t-80 58.5t-53.5 84t-19.5 101v248q-12 35 -32.5 60.5 t-59.5 31.5zM373 387q0 -47 33.5 -81t80.5 -34h95h69q37 0 62.5 27t25.5 61v818q0 49 -33 82q-32 32 -78 32h-5h-134h-5q-44 0 -76 -32q-35 -33 -35 -82v-791z" />
<glyph unicode="r" horiz-adv-x="1081" d="M8 602q8 14 21 25q10 10 27.5 17t43.5 7v641v275h641l2 -11v11q55 0 105.5 -21.5t87.5 -58.5t58.5 -86t21.5 -105v-413q0 -55 -21.5 -104.5t-58.5 -86.5t-86 -58.5t-105 -21.5l187 -612h-275l-184 604h-98v-604h-275v510q-10 35 -30.5 60.5t-61.5 31.5zM375 879h268 q41 0 70.5 29.5t29.5 70.5v213q0 41 -29.5 70.5t-70.5 29.5h-268v-413z" />
<glyph unicode="s" horiz-adv-x="933" d="M2 963h2v333q0 53 19.5 100.5t53.5 84.5t80 59.5t99 26.5h18h5h270h2q55 0 104.5 -21.5t86 -58.5t58 -86t21.5 -105v-249h-272v157q0 37 -25.5 62.5t-62.5 25.5h-70q-47 0 -79.5 -33.5t-32.5 -80.5v-215q0 -10 15 -16.5t38.5 -11.5t48.5 -8t43 -5q59 -10 118.5 -22.5 t112.5 -39.5q78 -41 121 -105.5t43 -150.5h2v-334q0 -53 -19.5 -101t-53 -84t-79.5 -58.5t-100 -26.5h-18h-2h-270h-5q-55 0 -104 21.5t-86 58.5t-58.5 86t-21.5 104v248h275v-158q0 -35 25.5 -61.5t60.5 -26.5h69q47 0 81 34t34 81v123q-12 35 -42 60.5t-71 31.5q2 6 10 14 q6 6 14.5 13.5t22.5 13.5q-29 6 -55.5 10t-46.5 9q-57 10 -113.5 22t-105.5 37q-78 37 -119 98.5t-41 143.5z" />
<glyph unicode="t" horiz-adv-x="909" d="M4 1292v275h264h275h266v-275h-266v-1292h-275v510q-10 35 -30.5 60.5t-61.5 31.5q8 14 21 25q10 10 27.5 17t43.5 7v641h-264z" />
<glyph unicode="u" horiz-adv-x="1167" d="M4 610q8 14 21 25q10 10 27.5 18.5t43.5 8.5v634v271h252h23v-709v-393v-78q0 -47 33.5 -81t80.5 -34h164q35 0 61.5 27t26.5 61v498h-2v709h2h273v-252v-19v-1026q0 -55 -21.5 -104t-58.5 -86t-86 -58.5t-105 -21.5h-2h-366h-2h-21q-53 4 -99 26.5t-80 58.5t-53.5 84 t-19.5 101v248q-10 35 -30.5 60.5t-61.5 31.5z" />
<glyph unicode="v" horiz-adv-x="1136" d="M18 1567h273l225 -1295h12l224 1295h274l-272 -1567h-72h-119h-84h-119h-71l-90 520v-2q-10 35 -32 60.5t-61 31.5q8 12 17 21q8 8 20.5 16t32.5 12z" />
<glyph unicode="w" horiz-adv-x="1763" d="M0 1567h274l224 -1295h12l223 1295h2h273h2l223 -1295h12l223 1295h275l-273 -1567h-71h-119h-82h-121h-69l-136 780l-137 -780h-71h-119h-82h-121h-70l-90 520l-2 -2q-10 35 -30.5 60.5t-61.5 31.5q8 12 16 21q8 8 20.5 16t33.5 12z" />
<glyph unicode="x" horiz-adv-x="1167" d="M12 1567h275l256 -688h4l256 688h272l-284 -768l243 -799h-272l-187 604h-63l-184 -604h-275l160 522q-10 31 -31.5 52.5t-56.5 27.5q8 14 20 25q10 10 27.5 17t44.5 7q10 0 18.5 -1t16.5 -3l45 152z" />
<glyph unicode="y" horiz-adv-x="1081" d="M8 1567h275l219 -594l221 594h272l-356 -963v-604h-274v510q-10 35 -31 60.5t-62 31.5q6 12 17 21q10 8 23.5 15t35.5 11z" />
<glyph unicode="z" horiz-adv-x="1193" d="M6 0l248 514q-10 35 -31.5 58.5t-58.5 29.5q8 14 20 25q10 10 27.5 17t44.5 7q33 0 57 -14l318 655h-522v275h804h144l-625 -1295h625v-272h-1030h-21z" />
<glyph unicode="~" horiz-adv-x="1705" />
<glyph unicode="&#xd1;" horiz-adv-x="1138" />
<glyph unicode="&#x2dc;" horiz-adv-x="1705" d="M225 1583v270h922v-270h-922z" />
<glyph unicode="&#x201c;" horiz-adv-x="1705" d="M37 874v119l76 72h45v-191h-121zM199 874v119l75 72h45v-191h-120z" />
<glyph unicode="&#x201d;" horiz-adv-x="1705" d="M1327 874v191h121v-119l-74 -72h-47zM1489 874v191h121v-119l-76 -72h-45z" />
<glyph unicode="&#x201e;" horiz-adv-x="1705" d="M14 1372v191h121v-119l-74 -72h-47zM176 1372v191h121v-119l-76 -72h-45z" />
<glyph unicode="&#x25fc;" horiz-adv-x="1566" d="M0 0v1567h1567v-1567h-1567z" />
</font>
</defs>
</svg>
